<?xml version="1.0" encoding="UTF-8" standalone="no"?>
<!-- Created with Inkscape (http://www.inkscape.org/) -->

<svg
   version="1.1"
   id="svg1"
   width="2666.6667"
   height="2666.6667"
   viewBox="0 0 2666.6667 2666.6667"
   sodipodi:docname="sword.svg"
   inkscape:version="1.3.2 (091e20ef0f, 2023-11-25, custom)"
   xmlns:inkscape="http://www.inkscape.org/namespaces/inkscape"
   xmlns:sodipodi="http://sodipodi.sourceforge.net/DTD/sodipodi-0.dtd"
   xmlns:xlink="http://www.w3.org/1999/xlink"
   xmlns="http://www.w3.org/2000/svg"
   xmlns:svg="http://www.w3.org/2000/svg">
  <defs
     id="defs1">
    <clipPath
       clipPathUnits="userSpaceOnUse"
       id="clipPath16">
      <use
         x="0"
         y="0"
         xlink:href="#g15"
         id="use16" />
    </clipPath>
  </defs>
  <sodipodi:namedview
     id="namedview1"
     pagecolor="#ffffff"
     bordercolor="#000000"
     borderopacity="0.25"
     inkscape:showpageshadow="2"
     inkscape:pageopacity="0.0"
     inkscape:pagecheckerboard="0"
     inkscape:deskcolor="#d1d1d1"
     inkscape:zoom="0.21329346"
     inkscape:cx="452.42831"
     inkscape:cy="1727.6666"
     inkscape:window-width="1920"
     inkscape:window-height="1011"
     inkscape:window-x="0"
     inkscape:window-y="0"
     inkscape:window-maximized="1"
     inkscape:current-layer="g1">
    <inkscape:page
       x="0"
       y="0"
       inkscape:label="1"
       id="page1"
       width="2666.6667"
       height="2666.6667"
       margin="0"
       bleed="0" />
  </sodipodi:namedview>
  <g
     id="g1"
     inkscape:groupmode="layer"
     inkscape:label="1">
    <g
       id="g16"
       clip-path="url(#clipPath16)"
       transform="matrix(-1,0,0,1,2666.6666,0)">
      <g
         inkscape:label="Clip"
         id="g15">
        <g
           id="group-R5">
          <path
             id="path2"
             d="M 20000,0 H 0 V 20000 H 20000 V 0"
             style="fill:#f4f4f4;fill-opacity:1;fill-rule:nonzero;stroke:none"
             transform="matrix(0.13333333,0,0,-0.13333333,0,2666.6667)" />
          <path
             id="path3"
             d="M 7466.17,7466.2 C 6902.66,8029.7 6463.24,8670.3 6147.76,9353.9 L 5767.1,8973.3 5386.44,8592.6 5005.78,8212 c 683.7,-315.5 1324.27,-754.9 1887.78,-1318.4 563.5,-563.5 1002.93,-1204.1 1318.41,-1887.8 l 380.66,380.6 380.66,380.7 380.65,380.7 c -683.69,315.4 -1324.26,754.9 -1887.77,1318.4"
             style="fill:#231f20;fill-opacity:1;fill-rule:nonzero;stroke:none"
             transform="matrix(0.13333333,0,0,-0.13333333,0,2666.6667)" />
          <path
             id="path4"
             d="m 4943.52,4125.8 c 624.41,624.4 1280.08,1198.4 1961.73,1722.7 -153.75,193.1 -319.76,379.6 -498.44,558.3 -178.69,178.7 -365.23,344.7 -558.34,498.4 C 5324.22,6223.6 4750.17,5567.9 4125.76,4943.5 3614.04,4431.8 3081.33,3953.9 2530.56,3509.4 l -256.98,257 -177.23,-177.2 -177.24,-177.3 -177.24,-177.2 c 318.33,-146.9 616.59,-351.5 878.96,-613.9 262.37,-262.3 466.97,-560.6 613.86,-878.9 l 177.23,177.2 177.24,177.2 177.24,177.3 -256.98,257 c 444.44,550.7 922.37,1083.4 1434.1,1595.2"
             style="fill:#231f20;fill-opacity:1;fill-rule:nonzero;stroke:none"
             transform="matrix(0.13333333,0,0,-0.13333333,0,2666.6667)" />
          <path
             id="path5"
             d="m 7629.55,8221.7 6537.35,6270.9 c 90.5,86.8 233.7,85.3 322.4,-3.3 88.6,-88.7 90.1,-231.9 3.3,-322.4 L 8221.69,7629.6 c 94.46,-83.2 190.68,-163.2 288.6,-240.1 l 8641.81,7602.9 1178,3337.7 -3337.7,-1178 -7602.9,-8641.8 c 76.86,-97.9 156.92,-194.2 240.05,-288.6"
             style="fill:#231f20;fill-opacity:1;fill-rule:nonzero;stroke:none"
             transform="matrix(0.13333333,0,0,-0.13333333,0,2666.6667)" />
        </g>
      </g>
    </g>
    <path
       style="fill:#ff0000;stroke-width:3.31263"
       d=""
       id="path6" />
    <path
       style="fill:#df4242;fill-opacity:1;stroke-width:4.68838"
       d="m 1549.587,1662.3094 15.3112,-13.7852 -23.9821,-24.8939 c -13.1902,-13.6917 -202.542,-211.1901 -420.7818,-438.8854 C 777.5268,827.29348 723.3346,768.86562 723.3346,756.93056 c 0,-17.91691 14.8733,-32.57643 33.0514,-32.57643 16.4881,0 -17.383,-31.55985 531.7758,495.48917 l 360.8827,346.3533 13.4321,-15.2982 c 7.3877,-8.4141 12.7171,-17.3324 11.8432,-19.8183 -0.8739,-2.486 -228.0488,-261.9199 -504.8331,-576.51976 C 729.4594,454.41444 663.7918,381.64837 646.7328,375.29855 595.9968,356.41332 229.0655,227.84557 228.4205,228.72765 c -0.4033,0.55153 34.3083,99.51706 77.1368,219.92339 l 77.8701,218.92061 573.3789,504.26145 c 315.3585,277.3438 574.2994,504.2614 575.4242,504.2614 1.1249,0 8.9353,-6.2033 17.3565,-13.7851 z"
       id="path13" />
    <path
       style="fill:#df4242;fill-opacity:1;stroke-width:4.68838"
       d="m 1585.9959,1963.2368 c 26.5894,-50.9732 85.6093,-136.3022 125.6454,-181.6538 62.5579,-70.8637 143.478,-135.1779 231.5065,-183.9981 l 50.0632,-27.7648 -72.1659,-72.0533 c -39.6912,-39.6293 -73.0422,-71.099 -74.1132,-69.9326 -1.071,1.1663 -7.7723,13.7124 -14.8917,27.8801 -36.5968,72.8278 -83.4589,137.5075 -147.2926,203.2947 -70.9432,73.1144 -146.7593,130.643 -226.4926,171.8607 -17.3961,8.9928 -31.6371,17.431 -31.6466,18.7515 -0.01,1.3205 32.1567,34.5021 71.4804,73.737 l 71.4978,71.3361 z"
       id="path14" />
    <path
       style="fill:#df4242;fill-opacity:1;stroke-width:4.68838"
       d="m 2244.8187,2408.7352 c 16.3233,-30.8118 61.9638,-88.1493 87.5777,-110.0225 23.2923,-19.8908 77.0691,-56.8219 89.5553,-61.502 3.1915,-1.1963 -8.4632,-16.4633 -27.0498,-35.4336 l -32.6575,-33.3317 -17.0214,16.621 -17.0215,16.621 -34.7118,-28.8893 c -134.9298,-112.2967 -284.4735,-265.2504 -379.3075,-387.9569 -14.1823,-18.3506 -27.6257,-33.4475 -29.8741,-33.5487 -2.2485,-0.1012 -33.769,29.6438 -70.0458,66.1 l -65.9576,66.2839 11.8641,9.9022 c 6.5253,5.4462 40.7538,33.8474 76.0633,63.1138 107.3718,88.9954 262.0136,244.4894 347.119,349.032 l 18.3045,22.4851 -17.1149,17.5272 -17.1148,17.5272 31.7285,31.4854 c 17.4507,17.317 32.7781,31.4854 34.061,31.4854 1.2829,0 6.5043,-7.8748 11.6033,-17.4995 z"
       id="path15" />
    <path
       style="fill:#df4242;fill-opacity:1;stroke-width:4.68838"
       d="m 1548.5666,1659.6024 11.0889,-11.8036 -18.9897,-19.8429 c -10.4444,-10.9136 -144.29,-150.6926 -297.4348,-310.6201 C 904.3636,963.46015 762.2466,813.16295 740.1551,785.30302 c -24.4401,-30.82171 -20.68,-54.70838 9.775,-62.0981 20.2821,-4.92135 0.1349,-23.40323 556.8297,510.80298 l 341.9738,328.1591 10.8265,-12.8666 c 5.9546,-7.0766 10.8266,-14.3345 10.8266,-16.1286 0,-3.5754 -21.3665,-28.1553 -344.4168,-396.2166 C 931.5755,687.60937 732.9575,463.77974 680.6486,409.71991 L 650.6648,378.73245 517.0461,331.71481 C 296.1394,253.98236 240.3104,235.32169 237.3912,238.24097 c -1.5308,1.5307 30.6977,97.29142 71.6186,212.80159 52.6545,148.63106 77.8301,213.64001 86.1306,222.40844 10.6192,11.21775 350.7451,310.44404 922.7244,811.7683 116.8351,102.4027 214.0442,186.1868 216.0202,186.1868 1.9759,0 8.5826,-5.3116 14.6816,-11.8037 z"
       id="path16" />
  </g>
</svg>
